{
  "asset": {
    "generator": "Khronos glTF Blender I/O v1.6.16",
    "version": "2.0"
  },
  "scene": 0,
  "scenes": [{ "name": "Scene", "nodes": [0] }],
  "nodes": [{ "mesh": 0, "name": "changfang_2" }],
  "materials": [
    {
      "name": "Material_2",
      "pbrMetallicRoughness": {
        "baseColorFactor": [
          0.5882353186607361, 0.5882353186607361, 0.5882353186607361, 1
        ],
        "baseColorTexture": { "index": 0 },
        "metallicFactor": 0
      }
    },
    {
      "name": "Material_1",
      "pbrMetallicRoughness": {
        "baseColorFactor": [
          0.5882353186607361, 0.5882353186607361, 0.5882353186607361, 1
        ],
        "baseColorTexture": { "index": 1 },
        "metallicFactor": 0
      }
    },
    {
      "name": "Material_3",
      "pbrMetallicRoughness": {
        "baseColorFactor": [
          0.5882353186607361, 0.5882353186607361, 0.5882353186607361, 1
        ],
        "baseColorTexture": { "index": 2 },
        "metallicFactor": 0
      }
    },
    {
      "name": "Material_4",
      "pbrMetallicRoughness": {
        "baseColorFactor": [
          0.5882353186607361, 0.5882353186607361, 0.5882353186607361, 1
        ],
        "baseColorTexture": { "index": 3 },
        "metallicFactor": 0
      }
    },
    {
      "name": "Material_0",
      "pbrMetallicRoughness": {
        "baseColorFactor": [
          0.5882353186607361, 0.5882353186607361, 0.5882353186607361, 1
        ],
        "baseColorTexture": { "index": 4 },
        "metallicFactor": 0
      }
    }
  ],
  "meshes": [
    {
      "name": "Mesh_2",
      "primitives": [
        {
          "attributes": { "POSITION": 0, "NORMAL": 1, "TEXCOORD_0": 2 },
          "indices": 3,
          "material": 0
        },
        {
          "attributes": { "POSITION": 4, "NORMAL": 5, "TEXCOORD_0": 6 },
          "indices": 7,
          "material": 1
        },
        {
          "attributes": { "POSITION": 8, "NORMAL": 9, "TEXCOORD_0": 10 },
          "indices": 11,
          "material": 2
        },
        {
          "attributes": { "POSITION": 12, "NORMAL": 13, "TEXCOORD_0": 14 },
          "indices": 15,
          "material": 3
        },
        {
          "attributes": { "POSITION": 16, "NORMAL": 17, "TEXCOORD_0": 18 },
          "indices": 19,
          "material": 4
        }
      ]
    }
  ],
  "textures": [
    { "sampler": 0, "source": 0 },
    { "sampler": 0, "source": 1 },
    { "sampler": 0, "source": 2 },
    { "sampler": 0, "source": 3 },
    { "sampler": 0, "source": 4 }
  ],
  "images": [
    { "bufferView": 4, "mimeType": "image/png", "name": "Image_2" },
    { "bufferView": 9, "mimeType": "image/png", "name": "Image_1" },
    { "bufferView": 14, "mimeType": "image/png", "name": "Image_3" },
    { "bufferView": 19, "mimeType": "image/png", "name": "Image_4" },
    { "bufferView": 24, "mimeType": "image/png", "name": "Image_0" }
  ],
  "accessors": [
    {
      "bufferView": 0,
      "componentType": 5126,
      "count": 156,
      "max": [15.725000381469727, 9.411800384521484, 9.485300064086914],
      "min": [-15.725000381469727, 6.029200077056885, -9.485300064086914],
      "type": "VEC3"
    },
    { "bufferView": 1, "componentType": 5126, "count": 156, "type": "VEC3" },
    { "bufferView": 2, "componentType": 5126, "count": 156, "type": "VEC2" },
    { "bufferView": 3, "componentType": 5123, "count": 174, "type": "SCALAR" },
    {
      "bufferView": 5,
      "componentType": 5126,
      "count": 243,
      "max": [15.725000381469727, 6.029200077056885, 9.485300064086914],
      "min": [-15.725000381469727, 0, -9.485300064086914],
      "type": "VEC3"
    },
    { "bufferView": 6, "componentType": 5126, "count": 243, "type": "VEC3" },
    { "bufferView": 7, "componentType": 5126, "count": 243, "type": "VEC2" },
    { "bufferView": 8, "componentType": 5123, "count": 498, "type": "SCALAR" },
    {
      "bufferView": 10,
      "componentType": 5126,
      "count": 8,
      "max": [-3.625, 4.320000171661377, 9.485300064086914],
      "min": [-8.024999618530273, 0, 9.485300064086914],
      "type": "VEC3"
    },
    { "bufferView": 11, "componentType": 5126, "count": 8, "type": "VEC3" },
    { "bufferView": 12, "componentType": 5126, "count": 8, "type": "VEC2" },
    { "bufferView": 13, "componentType": 5123, "count": 12, "type": "SCALAR" },
    {
      "bufferView": 15,
      "componentType": 5126,
      "count": 52,
      "max": [10.774999618530273, 4.969799995422363, 9.485300064086914],
      "min": [-10.975000381469727, 3.7248001098632812, -9.485300064086914],
      "type": "VEC3"
    },
    { "bufferView": 16, "componentType": 5126, "count": 52, "type": "VEC3" },
    { "bufferView": 17, "componentType": 5126, "count": 52, "type": "VEC2" },
    { "bufferView": 18, "componentType": 5123, "count": 60, "type": "SCALAR" },
    {
      "bufferView": 20,
      "componentType": 5126,
      "count": 513,
      "max": [15.774999618530273, 9.464900016784668, 9.502099990844727],
      "min": [-15.774999618530273, 0, -9.502099990844727],
      "type": "VEC3"
    },
    { "bufferView": 21, "componentType": 5126, "count": 513, "type": "VEC3" },
    { "bufferView": 22, "componentType": 5126, "count": 513, "type": "VEC2" },
    { "bufferView": 23, "componentType": 5123, "count": 816, "type": "SCALAR" }
  ],
  "bufferViews": [
    { "buffer": 0, "byteLength": 1872, "byteOffset": 0 },
    { "buffer": 0, "byteLength": 1872, "byteOffset": 1872 },
    { "buffer": 0, "byteLength": 1248, "byteOffset": 3744 },
    { "buffer": 0, "byteLength": 348, "byteOffset": 4992 },
    { "buffer": 0, "byteLength": 175852, "byteOffset": 5340 },
    { "buffer": 0, "byteLength": 2916, "byteOffset": 181192 },
    { "buffer": 0, "byteLength": 2916, "byteOffset": 184108 },
    { "buffer": 0, "byteLength": 1944, "byteOffset": 187024 },
    { "buffer": 0, "byteLength": 996, "byteOffset": 188968 },
    { "buffer": 0, "byteLength": 462, "byteOffset": 189964 },
    { "buffer": 0, "byteLength": 96, "byteOffset": 190428 },
    { "buffer": 0, "byteLength": 96, "byteOffset": 190524 },
    { "buffer": 0, "byteLength": 64, "byteOffset": 190620 },
    { "buffer": 0, "byteLength": 24, "byteOffset": 190684 },
    { "buffer": 0, "byteLength": 56452, "byteOffset": 190708 },
    { "buffer": 0, "byteLength": 624, "byteOffset": 247160 },
    { "buffer": 0, "byteLength": 624, "byteOffset": 247784 },
    { "buffer": 0, "byteLength": 416, "byteOffset": 248408 },
    { "buffer": 0, "byteLength": 120, "byteOffset": 248824 },
    { "buffer": 0, "byteLength": 41008, "byteOffset": 248944 },
    { "buffer": 0, "byteLength": 6156, "byteOffset": 289952 },
    { "buffer": 0, "byteLength": 6156, "byteOffset": 296108 },
    { "buffer": 0, "byteLength": 4104, "byteOffset": 302264 },
    { "buffer": 0, "byteLength": 1632, "byteOffset": 306368 },
    { "buffer": 0, "byteLength": 1234, "byteOffset": 308000 }
  ],
  "samplers": [{ "magFilter": 9729, "minFilter": 9987 }],
  "buffers": [
    {
      "byteLength": 309236,
      "uri": "data:application/octet-stream;base64,"
    }
  ]
}
